# File produced by Open Asset Import Library (http://www.assimp.sf.net)
# (assimp v5.0.1588609223)

mtllib result.mtl

# 141 vertex positions
v  -0.01389056 0.37238562 -0.039613165
v  0.016281817 0.37238562 -0.013709509
v  0.019949742 0.26302567 -0.01547566
v  -0.013783798 0.26861054 -0.04471641
v  0.054040134 0.11220138 -0.015475668
v  0.019980742 0.11220138 -0.044716418
v  -0.019693546 -0.08510609 -0.044716392
v  -0.053753011 -0.08510609 -0.015475623
v  -0.071114846 -0.066981941 -0.024557419
v  -0.026722003 -0.067454562 -0.063819021
v  -0.076000415 0.37238562 0.013709533
v  -0.076000437 0.37238562 -0.013709479
v  -0.083224326 0.28010708 -0.015475631
v  -0.083224304 0.28010708 0.015475694
v  -0.050130557 0.11220138 -0.015475634
v  -0.05013055 0.11220138 0.015475694
v  -0.016071092 0.11220138 -0.044716403
v  -0.023129603 0.092034936 -0.064584687
v  -0.068186611 0.092518643 -0.024950182
v  0.016281825 0.37238562 0.013709503
v  0.019949753 0.26302567 0.015475664
v  0.054040145 0.11220138 0.01547566
v  0.016358288 -0.08510609 -0.044716407
v  0.023102224 -0.068043321 -0.063914753
v  -0.045827989 0.37238562 -0.03961315
v  -0.049490705 0.27452216 -0.044716399
v  0.050417688 -0.08510609 -0.015475658
v  0.067691803 -0.068522036 -0.024691388
v  -0.045827959 0.37238562 0.039613172
v  -0.049490683 0.27452216 0.044716429
v  -0.016071061 0.11220138 0.044716429
v  0.027216872 0.091439955 -0.064487971
v  0.072074972 0.09096247 -0.024814863
v  -0.013890536 0.37238562 0.039613165
v  -0.013783772 0.26861054 0.044716422
v  0.019980771 0.11220138 0.044716414
v  0.016358316 -0.08510609 0.044716425
v  0.050417695 -0.08510609 0.015475671
v  0.067691818 -0.068522036 0.024691399
v  0.023102259 -0.068043321 0.063914768
v  0.027216915 0.091439955 0.064487956
v  0.072074987 0.09096247 0.024814844
v  -0.053753003 -0.08510609 0.015475704
v  -0.019693516 -0.08510609 0.04471644
v  -0.026721956 -0.067454562 0.063819066
v  -0.071114838 -0.066981941 0.024557512
v  -0.068186596 0.092518643 0.024950257
v  -0.023129554 0.092034936 0.064584717
v  0.068658672 0.020844737 -0.024135085
v  0.025046144 0.021198139 -0.062631264
v  0.06865868 0.020844741 0.024135079
v  -0.023823813 0.02163589 -0.062657148
v  -0.020509508 0.0016433728 -0.051906664
v  0.019991608 0.0012807901 -0.051926445
v  -0.06748955 0.021988921 -0.024171203
v  -0.067489535 0.021988925 0.024171278
v  -0.023823762 0.021635894 0.062657185
v  0.025046183 0.021198142 0.062631272
v  0.01999164 0.0012807945 0.051926456
v  -0.020509468 0.0016433772 0.051906712
v  0.056178059 0.00098776957 0.020030864
v  0.056178052 0.00098776771 -0.020030856
v  -0.056655332 0.0019359067 0.020003257
v  -0.056655344 0.0019359048 -0.020003185
v  0.06075209 -0.27278888 0.018762233
v  0.060752075 -0.27278888 -0.018762235
v  0.019934865 -0.26536497 -0.054212853
v  -0.023270104 -0.25750667 -0.054212838
v  -0.064087391 -0.2500827 -0.018762197
v  -0.023270072 -0.25750676 0.054212868
v  0.019934887 -0.26536497 0.054212853
v  -0.064087376 -0.2500827 0.018762272
v  -0.054971572 0.39625183 0.063629687
v  -0.10020874 0.39659241 0.023917159
v  -0.054971613 0.39625183 -0.063629657
v  -0.0049212142 0.39582777 -0.063698605
v  -0.0049211732 0.39582777 0.063698605
v  0.040457617 0.39548305 0.024013586
v  -0.003970461 0.75879174 0.008534627
v  -0.020112958 0.75891328 0.02270576
v  -0.037973069 0.75906456 0.022730373
v  -0.03797308 0.75906456 -0.02273038
v  -0.020112973 0.75891328 -0.02270578
v  -0.05416619 0.75918764 0.0085690785
v  -0.054166198 0.75918764 -0.0085690729
v  -0.10020874 0.39659241 -0.023917088
v  -0.0039704666 0.75879174 -0.0085346568
v  0.040457603 0.39548305 -0.024013605
v  -0.085956447 0.90708709 0.019418344
v  -0.085956462 0.90708709 -0.019418323
v  -0.0087886052 0.90646535 0.051453386
v  -0.049261294 0.90680838 0.051509157
v  0.027791802 0.90619004 -0.019340333
v  0.027791815 0.90619004 0.019340273
v  -0.008788636 0.90646535 -0.051453434
v  -0.049261328 0.90680838 -0.051509187
v  -0.029060299 0.91724086 -1.3285167e-08
v  -0.0016676311 -0.27304909 1.3975992e-08
v  0.049262904 0.86005354 -0.056586213
v  0.049262937 0.86005354 0.056587156
v  0.10390679 0.83755207 0.034957513
v  0.10390676 0.83755207 -0.034956597
v  -0.1607938 0.72272313 -0.092480369
v  0.05995284 0.72779858 -0.067197755
v  0.05995284 0.58438402 -0.067197748
v  -0.1607938 0.58945948 -0.092480361
v  -0.16079372 0.72272313 0.092481457
v  -0.15580747 0.85152215 0.076355599
v  -0.29478496 0.88961738 0.063652128
v  0.12546314 0.72823578 -0.040664703
v  0.12546317 0.72823578 0.040665604
v  -0.15580751 0.46066046 -0.076354504
v  0.049262904 0.45212907 -0.056586195
v  0.049262937 0.45212907 0.056587175
v  0.059952881 0.58438402 0.067198709
v  -0.16079372 0.58945948 0.092481464
v  -0.15580747 0.46066046 0.076355614
v  -0.20259705 0.8643477 -0.072077624
v  -0.15780286 0.79998094 -0.082807571
v  -0.29478502 0.88961738 -0.063650966
v  -0.35530606 0.74012214 0.078783505
v  -0.43835422 0.97137362 6.2246954e-07
v  -0.29478496 0.42256522 0.06365215
v  -0.29478502 0.42256522 -0.063650943
v  -0.43835422 0.34080902 6.500324e-07
v  -0.50443923 0.49462417 0.018561263
v  -0.35530606 0.57206047 0.078783512
v  -0.58885717 0.65609133 6.8529107e-07
v  -0.35530615 0.74012214 -0.07878229
v  -0.55040222 0.84142315 6.6465975e-07
v  -0.50443923 0.49462417 -0.018559933
v  -0.51349741 0.42795733 6.7070778e-07
v  -0.56221467 0.52768791 6.8222249e-07
v  -0.10758761 0.8535282 -0.071706228
v  -0.15580751 0.85152215 -0.027875073
v  0.12546314 0.58394688 -0.040664695
v  0.059952881 0.72779858 0.067198701
v  0.10390679 0.47463053 0.034957521
v  0.12546317 0.58394688 0.040665612
v  0.10390676 0.47463053 -0.034956589
v  -0.35530615 0.57206047 -0.078782283

# 0 UV coordinates

# 262 vertex normals
vn 0.35471201 0.04599591 -0.93384355
vn 0.65467662 0.035930131 -0.75505465
vn 0.65476763 0.097299181 -0.74954146
vn 0.3281579 0.053632129 -0.94309908
vn 0.65314639 0.14425258 -0.74336463
vn 0.39163658 0.086496063 -0.91604543
vn -0.23897938 -0.75294966 -0.61315221
vn -0.61949456 -0.73842984 -0.26636073
vn -0.61264837 -0.7391777 -0.27978262
vn -0.23860788 -0.75296575 -0.61327726
vn -0.99694985 0.078044765 7.8515529e-07
vn -0.99825543 -0.059043385 5.8153228e-07
vn -0.99825537 -0.059043396 5.8153228e-07
vn -0.98112458 -0.19337697 3.6965162e-07
vn -0.63545603 0.71965963 -0.27979589
vn -0.24077488 0.71921879 -0.65172994
vn -0.23578598 0.71921098 -0.65355998
vn -0.62797725 0.72018713 -0.29491568
vn 0.99943799 0.033521097 -3.1895576e-07
vn 0.99176818 0.12804596 -3.2180628e-07
vn 0.97539473 0.22046573 -3.2177783e-07
vn 0.2238678 -0.76293886 -0.60647136
vn 0.21825978 -0.76292378 -0.608531
vn -0.64869893 0.064537115 -0.75830382
vn -0.34014818 0.061265975 -0.93837398
vn -0.36949417 -0.011173392 -0.9291659
vn -0.65403187 -0.022102853 -0.75614405
vn -0.31050667 -0.062541455 -0.94851154
vn -0.65370107 -0.13166679 -0.74521059
vn 0.59256905 -0.76276565 -0.25894096
vn 0.58413577 -0.76339847 -0.27569565
vn -0.34014758 0.061266072 0.9383741
vn -0.64869851 0.064537235 0.75830412
vn -0.65403128 -0.02210274 0.75614446
vn -0.36949363 -0.011173303 0.92916614
vn -0.65370047 -0.13166671 0.74521106
vn -0.31050608 -0.062541358 0.94851178
vn 0.25500953 0.70932001 -0.6571418
vn 0.25441626 0.70934409 -0.65734577
vn 0.65915334 0.69555497 -0.28586718
vn 0.65302753 0.69618279 -0.2981351
vn 0.35471255 0.045995992 0.93384331
vn 0.32815841 0.053632203 0.94309902
vn 0.39163691 0.086496077 0.91604531
vn 0.22386812 -0.76293886 0.6064713
vn 0.59256911 -0.76276565 0.25894064
vn 0.58413583 -0.76339853 0.27569538
vn 0.21826003 -0.7629239 0.60853088
vn 0.65467697 0.035930224 0.75505424
vn 0.65476793 0.097299218 0.74954116
vn 0.65314662 0.14425255 0.74336445
vn 0.65915352 0.69555503 0.28586698
vn 0.25500989 0.70931971 0.65714192
vn 0.25441667 0.70934379 0.65734571
vn 0.65302753 0.69618285 0.29813495
vn -0.61949432 -0.73842978 0.266361
vn -0.23897895 -0.75294966 0.61315244
vn -0.23860747 -0.75296569 0.61327732
vn -0.61264819 -0.73917764 0.27978283
vn -0.24077429 0.71921861 0.6517303
vn -0.63545591 0.71965963 0.27979627
vn -0.62797701 0.72018701 0.29491606
vn -0.23578541 0.71921092 0.65356022
vn 0.35588589 -0.035727467 -0.93384629
vn 0.66139448 -0.039861869 -0.7489782
vn 0.35159743 -0.035643373 -0.93547249
vn 0.99881518 -0.048664521 -2.2582731e-07
vn -0.35099402 -0.022131575 -0.93611616
vn -0.35501435 -0.022055646 -0.93460059
vn -0.34330067 0.18948962 -0.91991204
vn 0.35104337 0.17481092 -0.9198966
vn 0.34710613 0.17488654 -0.9213751
vn -0.34882942 0.18961851 -0.91780323
vn -0.66084749 -0.014424347 -0.75038153
vn -0.35099316 -0.022131454 0.93611646
vn -0.66084695 -0.014424319 0.75038207
vn -0.35501349 -0.022055527 0.93460095
vn 0.66139472 -0.039861821 0.74897802
vn 0.35588655 -0.035727333 0.93384606
vn 0.35159802 -0.035643235 0.93547231
vn 0.35104379 0.1748109 0.91989642
vn -0.34329993 0.18948959 0.91991234
vn -0.34882876 0.1896185 0.91780347
vn 0.34710658 0.17488657 0.9213748
vn 0.65340471 0.15761817 0.74041808
vn 0.9865573 0.16341557 -2.4091563e-07
vn -0.64969891 0.18527506 0.73726833
vn -0.64969963 0.18527503 -0.73726761
vn -0.99995118 -0.0098827081 3.0443442e-07
vn -0.97869134 0.205337 2.1469114e-07
vn 0.65340436 0.15761806 -0.74041826
vn 0.99848747 0.054979809 -3.4219445e-07
vn -0.343656 0.058307834 -0.93728381
vn 0.35248953 0.055853035 -0.93414748
vn 0.38812581 0.055656709 -0.91992432
vn -0.30842939 0.058174394 -0.94946671
vn 0.65580457 0.050962303 -0.75320858
vn -0.64959985 0.055514205 -0.7582469
vn 0.35249001 0.055852946 0.93414736
vn -0.34365523 0.058307711 0.93728405
vn -0.30842862 0.058174279 0.94946706
vn 0.38812596 0.055656627 0.91992426
vn -0.99804378 0.062518924 3.4990447e-07
vn -0.64959902 0.055514108 0.75824749
vn 0.65580481 0.050962266 0.7532084
vn -0.61276644 -0.73807901 0.2824119
vn -0.2426388 -0.73129052 0.63744867
vn -0.24476081 -0.7312513 0.63668185
vn -0.61626577 -0.73811334 0.27459997
vn 0.23284063 -0.73691159 -0.63462317
vn -0.24263924 -0.7312901 -0.63744891
vn -0.24476121 -0.73125082 -0.63668209
vn 0.23183332 -0.73690504 -0.63499945
vn 0.2328409 -0.73691183 0.63462281
vn 0.23183362 -0.73690534 0.63499898
vn 0.59773761 -0.75148129 0.27925935
vn 0.6004678 -0.75156611 0.27310583
vn 0.65841627 -0.042957723 0.75142705
vn 0.35142624 -0.0447939 0.93514335
vn 0.35127419 0.11953018 0.92861134
vn 0.65502393 0.11185775 0.74728262
vn -0.35089558 -0.04417501 0.93537205
vn -0.34841198 0.12111229 0.92948425
vn -0.35089618 -0.044175107 -0.93537182
vn 0.3514258 -0.044794042 -0.93514347
vn 0.35127366 0.11953012 -0.92861152
vn -0.34841263 0.12111223 -0.92948395
vn -0.65841794 -0.042215168 0.7514677
vn -0.65450108 0.11482312 0.74729109
vn -0.65841848 -0.042215232 -0.75146723
vn -0.6545018 0.1148231 -0.74729061
vn 0.9989053 -0.046777263 -3.0066505e-07
vn 0.9989053 -0.046777252 -3.0066508e-07
vn 0.99260575 0.12138318 -4.4343568e-07
vn -0.99902052 -0.044248253 3.9443921e-07
vn -0.99902052 -0.044248261 3.9443924e-07
vn -0.99203426 0.12596907 2.2175409e-07
vn 0.65841609 -0.042957831 -0.75142723
vn 0.65502363 0.11185771 -0.74728304
vn -0.61276674 -0.73807901 -0.28241161
vn -0.61626601 -0.73811322 -0.27459979
vn 0.59773749 -0.75148124 -0.27925959
vn 0.60046768 -0.75156611 -0.27310607
vn 0.29319066 -0.50935942 0.80906874
vn 0.75453246 -0.54900765 0.35954344
vn 0.76444137 -0.55030745 0.33584368
vn 0.30574298 -0.50983816 0.80410594
vn -0.31703374 -0.48934498 0.81242299
vn -0.30813739 -0.48959777 0.815687
vn 0.29319003 -0.5093596 -0.80906886
vn -0.3170343 -0.48934534 -0.81242251
vn -0.30813792 -0.48959813 -0.81568658
vn 0.30574229 -0.50983828 -0.804106
vn -0.78642046 -0.49985927 0.36288223
vn -0.79227996 -0.50023323 0.34936979
vn -0.7864207 -0.49985945 -0.36288163
vn -0.79228014 -0.50023341 -0.34936917
vn 0.75453222 -0.54900777 -0.35954371
vn 0.76444119 -0.55030757 -0.33584407
vn -0.97767019 -0.21014538 5.5287092e-07
vn 0.34333643 -0.20492853 0.91658306
vn -0.3469972 -0.20478915 0.91523451
vn -0.64673805 -0.19313872 0.73785311
vn 0.97756135 -0.21065079 -1.5215278e-07
vn 0.34333608 -0.20492873 -0.91658306
vn 0.64644915 -0.19340579 -0.73803633
vn 0.64644921 -0.1934056 0.73803639
vn -0.34699771 -0.20478927 -0.91523433
vn -0.64673853 -0.19313882 -0.73785269
vn 0.0078093149 0.99996948 -1.8538015e-07
vn 0.16766796 0.98342264 -0.069046028
vn 0.074897267 0.98152816 -0.17604782
vn -0.15237109 0.98590654 -0.069075242
vn -0.152371 0.98590642 0.069076613
vn 0.16766801 0.98342276 0.069045357
vn -0.05850004 0.98263663 -0.17607698
vn -0.058499929 0.98263651 0.17607708
vn 0.074897379 0.9815284 0.17604646
vn -0.17322078 -0.98488301 -4.531866e-07
vn -0.10948286 -0.97716045 -0.18212882
vn -0.016780691 -0.99742967 -0.069660001
vn -0.32722431 -0.9426887 0.065284744
vn -0.32722417 -0.94268876 -0.065285772
vn -0.016780663 -0.99742961 0.069660328
vn -0.24207489 -0.95396966 -0.17703556
vn -0.24207422 -0.95397019 0.17703378
vn -0.10948182 -0.97716075 0.18212819
vn 0.14008896 0.99013889 -3.3351546e-07
vn 0.14008898 0.99013889 -8.9205535e-08
vn 0.38076511 0.92467183 -2.0629825e-07
vn 0.020018933 0.05642787 -0.9982059
vn 0.2523286 0.051286303 -0.96628153
vn 0.25000474 -0.055039316 -0.96667904
vn 0.020809978 -0.055229366 -0.99825686
vn 0.020810617 0.055229362 0.99825686
vn 0.019462226 0.11570343 0.99309313
vn -0.17813906 0.1708076 0.96906716
vn 0.99542141 0.095583871 -2.963549e-07
vn 0.98110682 0.19346723 -2.2106101e-07
vn 0.99542135 0.095583864 -2.963549e-07
vn 0.019461501 -0.11570353 -0.99309313
vn 0.22408362 -0.10891853 -0.96846437
vn 0.22408436 -0.10891853 0.9684642
vn 0.25000542 -0.055039257 0.9666788
vn 0.020810639 -0.05522928 0.99825686
vn 0.019462245 -0.11570348 0.99309313
vn -0.055948164 0.12616912 -0.99042976
vn 0.016226191 0.12359671 -0.99219984
vn -0.17813964 0.17080738 -0.9690671
vn -0.20197523 0.086337328 0.97557765
vn -0.27343059 0.22075555 0.93621713
vn 0.11316378 -0.99357635 -1.0808028e-08
vn 0.11316378 -0.99357635 -1.0808037e-08
vn 0.3640233 -0.93138975 -2.8367353e-07
vn -0.17813951 -0.17080738 -0.9690671
vn 0.36402336 0.93138975 0
vn 0.36402345 0.93138975 2.2929385e-07
vn 0.49484569 0.86898082 0
vn 0.49484554 -0.86898088 -3.5424205e-07
vn -0.3024886 -0.14953166 0.94135058
vn -0.201975 -0.086337082 0.97557777
vn -0.33704898 1.8962797e-07 0.94148713
vn -0.20197591 0.086337231 -0.97557759
vn -0.3022522 0.1499922 -0.94135332
vn -0.27343118 0.22075517 -0.93621713
vn -0.3024891 -0.14953177 -0.9413504
vn -0.27342999 -0.22075583 -0.93621725
vn -0.2617453 -0.2256884 -0.93837851
vn -0.34163216 -0.070885405 -0.93715668
vn -0.3370496 1.9843213e-07 -0.9414869
vn -0.30225158 0.14999235 0.94135338
vn -0.53990567 0.62353343 -0.56542724
vn -0.17813893 -0.17080733 0.96906728
vn 0.38180062 0.054033373 -0.92266393
vn 0.38180047 -0.054033384 -0.92266393
vn 0.25000528 0.055039283 0.96667886
vn 0.22408409 0.1089185 0.96846426
vn 0.14008896 -0.99013889 -5.0431002e-09
vn 0.14008893 -0.99013889 -5.0430802e-09
vn 0.22576492 0.10627876 -0.96836728
vn 0.38755012 0.11353493 -0.91483039
vn 0.38755083 -0.11353495 0.91483015
vn 0.38180122 -0.054033346 0.92266363
vn 0.38754991 -0.11353493 -0.91483057
vn 0.38180101 0.054033414 0.92266381
vn 0.38755029 0.11353491 0.91483033
vn 0.99542129 -0.095583841 -4.0557157e-07
vn 0.99542129 -0.095583841 -4.0557154e-07
vn 0.9811067 -0.19346717 -4.4212177e-07
vn 0.11316378 0.99357635 -1.4271106e-07
vn 0.11279363 0.99361849 -1.3599659e-07
vn 0.26435915 0.96442437 7.5816888e-07
vn 0.38076508 -0.92467189 -2.9668277e-07
vn -0.20197567 -0.086337171 -0.97557765
vn -0.99089515 0.13463593 0
vn -0.49669558 -0.86792487 0
vn -0.27342945 -0.2207558 0.93621749
vn -0.26174492 -0.22568871 0.93837851
vn -0.34163165 -0.070885129 0.93715698
vn 0.090297073 0.12028165 -0.98862469
vn 0.65093601 0.54166228 -0.53186882
vn -0.04156629 0.99913567 -1.0275343e-06

# Mesh 'Cube.12900' with 162 faces
g Cube.12900
usemtl barbarian_texture
f  1//1 2//2 3//3 4//4
f  4//4 3//3 5//5 6//6
f  7//7 8//8 9//9 10//10
f  11//11 12//11 13//12 14//13
f  14//13 13//12 15//14 16//14
f  15//15 17//16 18//17 19//18
f  2//19 20//19 21//20 3//20
f  3//20 21//20 22//21 5//21
f  23//22 7//7 10//10 24//23
f  12//24 25//25 26//26 13//27
f  13//27 26//26 17//28 15//29
f  27//30 23//22 24//23 28//31
f  29//32 11//33 14//34 30//35
f  30//35 14//34 16//36 31//37
f  17//16 6//38 32//39 18//17
f  25//25 1//1 4//4 26//26
f  26//26 4//4 6//6 17//28
f  6//38 5//40 33//41 32//39
f  34//42 29//32 30//35 35//43
f  35//43 30//35 31//37 36//44
f  37//45 38//46 39//47 40//48
f  20//49 34//42 35//43 21//50
f  21//50 35//43 36//44 22//51
f  38//46 27//30 28//31 39//47
f  22//52 36//53 41//54 42//55
f  5//40 22//52 42//55 33//41
f  43//56 44//57 45//58 46//59
f  31//60 16//61 47//62 48//63
f  44//57 37//45 40//48 45//58
f  8//8 43//56 46//59 9//9
f  36//53 31//60 48//63 41//54
f  16//61 15//15 19//18 47//62
f  32//64 33//65 49//65 50//66
f  33//67 42//67 51//67 49//67
f  18//68 32//64 50//66 52//69
f  53//70 54//71 24//72 10//73
f  19//74 18//68 52//69 55//74
f  48//75 47//76 56//76 57//77
f  42//78 41//79 58//80 51//78
f  59//81 60//82 45//83 40//84
f  61//85 59//81 40//84 39//85
f  62//86 61//86 39//86 28//86
f  60//82 63//87 46//87 45//83
f  64//88 53//70 10//73 9//88
f  47//89 19//89 55//89 56//89
f  63//90 64//90 9//90 46//90
f  54//71 62//91 28//91 24//72
f  27//92 38//92 65//92 66//92
f  7//93 23//94 67//95 68//96
f  23//94 27//97 66//97 67//95
f  8//98 7//93 68//96 69//98
f  37//99 44//100 70//101 71//102
f  43//103 8//103 69//103 72//103
f  44//100 43//104 72//104 70//101
f  38//105 37//99 71//102 65//105
f  11//106 29//107 73//108 74//109
f  1//110 25//111 75//112 76//113
f  29//107 34//114 77//115 73//108
f  34//114 20//116 78//117 77//115
f  79//118 80//119 77//120 78//121
f  80//119 81//122 73//123 77//120
f  82//124 83//125 76//126 75//127
f  81//122 84//128 74//129 73//123
f  85//130 82//124 75//127 86//131
f  87//132 79//133 78//134 88//134
f  84//135 85//136 86//137 74//137
f  83//125 87//138 88//139 76//126
f  25//111 12//140 86//141 75//112
f  20//116 2//142 88//143 78//117
f  12//140 11//106 74//109 86//141
f  2//142 1//110 76//113 88//143
f  59//144 61//145 51//146 58//147
f  60//148 59//144 58//147 57//149
f  54//150 53//151 52//152 50//153
f  63//154 60//148 57//149 56//155
f  53//151 64//156 55//157 52//152
f  61//145 62//158 49//159 51//146
f  64//156 63//154 56//155 55//157
f  62//158 54//150 50//153 49//159
f  41//79 48//75 57//77 58//80
f  85//136 84//135 89//160 90//160
f  81//122 80//119 91//161 92//162
f  84//128 81//122 92//162 89//163
f  79//133 87//132 93//164 94//164
f  87//138 83//125 95//165 93//166
f  80//119 79//118 94//167 91//161
f  83//125 82//124 96//168 95//165
f  82//124 85//130 90//169 96//168
f  97//170 93//171 95//172
f  97//170 90//173 89//174
f  97//170 94//175 93//171
f  97//170 96//176 90//173
f  97//170 89//174 92//177
f  97//170 95//172 96//176
f  97//170 92//177 91//178
f  97//170 91//178 94//175
f  98//179 67//180 66//181
f  98//179 72//182 69//183
f  98//179 66//181 65//184
f  98//179 69//183 68//185
f  98//179 70//186 72//182
f  98//179 68//185 67//180
f  98//179 71//187 70//186
f  98//179 65//184 71//187
f  99//188 100//189 101//190 102//190
f  103//191 104//192 105//193 106//194
f  107//195 108//196 109//197
f  110//198 102//199 101//199 111//200
f  112//201 106//194 105//193 113//202
f  114//203 115//204 116//205 117//206
f  118//207 119//208 103//191 120//209
f  121//210 109//197 122//211
f  112//212 117//213 123//214 124//214
f  106//194 112//201 124//215
f  109//216 120//217 122//218
f  124//214 123//214 125//219
f  126//220 127//221 128//222
f  129//223 130//224 122//225
f  121//210 128//222 127//221
f  131//226 125//227 132//228
f  103//191 129//223 120//209
f  107//195 121//210 127//221 116//205
f  131//226 133//229 128//230
f  121//210 130//231 128//222
f  134//232 119//232 135//232
f  116//205 127//221 123//233
f  105//193 104//192 110//234 136//235
f  137//236 100//237 108//196 107//195
f  113//238 114//239 117//213 112//212
f  115//204 137//236 107//195 116//205
f  104//192 99//240 102//241 110//234
f  115//204 114//203 138//242 139//243
f  113//202 105//193 136//235 140//244
f  137//236 115//204 139//243 111//245
f  100//237 137//236 111//245 101//246
f  136//247 110//198 111//200 139//248
f  140//249 136//247 139//248 138//249
f  108//250 135//251 118//252 120//217
f  140//253 138//253 114//239 113//238
f  103//191 106//194 141//254 129//223
f  130//224 129//223 128//230
f  132//255 126//255 131//255
f  129//223 141//254 128//230
f  126//256 133//256 131//256
f  125//257 126//220 132//258
f  141//254 131//226 128//230
f  141//254 124//215 125//227
f  127//221 126//220 125//257
f  133//259 126//220 128//222
f  120//209 129//223 122//225
f  131//226 141//254 125//227
f  123//233 127//221 125//257
f  130//231 121//210 122//211
f  121//210 107//195 109//197
f  117//206 116//205 123//233
f  141//254 106//194 124//215
f  103//191 119//208 134//260 99//240
f  119//261 118//261 135//261
f  99//188 108//250 100//189
f  109//216 108//250 120//217
f  134//262 135//251 108//250 99//188
f  104//192 103//191 99//240

